<svg xmlns="http://www.w3.org/2000/svg" width="862" height="282" viewBox="0 0 862 282">
  <g id="Group_1" data-name="Group 1" transform="translate(-187 -203)">
    <rect id="Rectangle_1" data-name="Rectangle 1" width="55" height="54" rx="15" transform="translate(187 261)" fill="#1af7ff"/>
    <rect id="Rectangle_3" data-name="Rectangle 3" width="55" height="54" rx="15" transform="translate(302 261)" fill="#1af7ff"/>
    <rect id="Rectangle_6" data-name="Rectangle 6" width="55" height="54" rx="15" transform="translate(533 261)" fill="#0e0ef1"/>
    <rect id="Rectangle_17" data-name="Rectangle 17" width="55" height="54" rx="15" transform="translate(392 428)" fill="#28ff00"/>
    <rect id="Rectangle_26" data-name="Rectangle 26" width="55" height="54" rx="15" transform="translate(760 431)" fill="#f92323"/>
    <rect id="Rectangle_10" data-name="Rectangle 10" width="55" height="54" rx="15" transform="translate(764 261)" fill="#fbaa07"/>
    <rect id="Rectangle_21" data-name="Rectangle 21" width="55" height="54" rx="15" transform="translate(605 430)" fill="#c315c9"/>
    <rect id="Rectangle_2" data-name="Rectangle 2" width="55" height="54" rx="15" transform="translate(244 261)" fill="#1af7ff"/>
    <rect id="Rectangle_5" data-name="Rectangle 5" width="55" height="54" rx="15" transform="translate(475 261)" fill="#0e0ef1"/>
    <rect id="Rectangle_19" data-name="Rectangle 19" width="55" height="54" rx="15" transform="translate(394 370)" fill="#28ff00"/>
    <rect id="Rectangle_27" data-name="Rectangle 27" width="55" height="54" rx="15" transform="translate(877 375)" fill="#f92323"/>
    <rect id="Rectangle_11" data-name="Rectangle 11" width="55" height="54" rx="15" transform="translate(706 261)" fill="#fbaa07"/>
    <rect id="Rectangle_23" data-name="Rectangle 23" width="55" height="54" rx="15" transform="translate(547 430)" fill="#c315c9"/>
    <rect id="Rectangle_8" data-name="Rectangle 8" width="55" height="54" rx="15" transform="translate(475 203)" fill="#0e0ef1"/>
    <rect id="Rectangle_20" data-name="Rectangle 20" width="55" height="54" rx="15" transform="translate(334 370)" fill="#28ff00"/>
    <rect id="Rectangle_28" data-name="Rectangle 28" width="55" height="54" rx="15" transform="translate(817 375)" fill="#f92323"/>
    <rect id="Rectangle_12" data-name="Rectangle 12" width="55" height="54" rx="15" transform="translate(820 203)" fill="#fbaa07"/>
    <rect id="Rectangle_24" data-name="Rectangle 24" width="55" height="54" rx="15" transform="translate(605 370)" fill="#c315c9"/>
    <rect id="Rectangle_4" data-name="Rectangle 4" width="55" height="54" rx="15" transform="translate(359 261)" fill="#1af7ff"/>
    <rect id="Rectangle_7" data-name="Rectangle 7" width="55" height="54" rx="15" transform="translate(590 261)" fill="#0e0ef1"/>
    <rect id="Rectangle_18" data-name="Rectangle 18" width="55" height="54" rx="15" transform="translate(449 428)" fill="#28ff00"/>
    <rect id="Rectangle_25" data-name="Rectangle 25" width="55" height="54" rx="15" transform="translate(817 431)" fill="#f92323"/>
    <rect id="Rectangle_9" data-name="Rectangle 9" width="55" height="54" rx="15" transform="translate(821 261)" fill="#fbaa07"/>
    <rect id="Rectangle_22" data-name="Rectangle 22" width="55" height="54" rx="15" transform="translate(662 430)" fill="#c315c9"/>
    <rect id="Rectangle_13" data-name="Rectangle 13" width="55" height="54" rx="15" transform="translate(937 261)" fill="#ffff7e"/>
    <rect id="Rectangle_15" data-name="Rectangle 15" width="55" height="54" rx="15" transform="translate(937 203)" fill="#ffff7e"/>
    <rect id="Rectangle_14" data-name="Rectangle 14" width="55" height="54" rx="15" transform="translate(994 261)" fill="#ffff7e"/>
    <rect id="Rectangle_16" data-name="Rectangle 16" width="55" height="54" rx="15" transform="translate(994 203)" fill="#ffff7e"/>
  </g>
</svg>
